<svg xmlns="http://www.w3.org/2000/svg" viewBox="0 0 512 512">
  <defs>
    <linearGradient id="bg" x1="0%" y1="0%" x2="100%" y2="100%">
      <stop offset="0%" style="stop-color:#E07A5F"/>
      <stop offset="100%" style="stop-color:#E8985A"/>
    </linearGradient>
    <linearGradient id="note" x1="0%" y1="0%" x2="0%" y2="100%">
      <stop offset="0%" style="stop-color:#FFFDF9"/>
      <stop offset="100%" style="stop-color:#FFF0E6"/>
    </linearGradient>
    <linearGradient id="spark" x1="0%" y1="0%" x2="100%" y2="100%">
      <stop offset="0%" style="stop-color:#FFD6A5"/>
      <stop offset="100%" style="stop-color:#FFFDF9"/>
    </linearGradient>
  </defs>
  <rect width="512" height="512" rx="112" ry="112" fill="url(#bg)"/>
  <rect width="512" height="512" rx="112" ry="112" fill="none" stroke="#C46A3A" stroke-width="2" opacity="0.3"/>
  <rect x="290" y="100" width="28" height="250" rx="14" fill="url(#note)" opacity="0.95"/>
  <ellipse cx="230" cy="350" rx="72" ry="55" transform="rotate(-20, 230, 350)" fill="url(#note)" opacity="0.95"/>
  <path d="M 110 200 Q 90 256 110 312" fill="none" stroke="url(#spark)" stroke-width="18" stroke-linecap="round" opacity="0.9"/>
  <path d="M 145 170 Q 118 256 145 342" fill="none" stroke="url(#spark)" stroke-width="16" stroke-linecap="round" opacity="0.7"/>
  <path d="M 75 230 Q 60 256 75 282" fill="none" stroke="url(#spark)" stroke-width="14" stroke-linecap="round" opacity="0.5"/>
  <circle cx="340" cy="110" r="12" fill="url(#spark)" opacity="0.9"/>
  <circle cx="370" cy="140" r="8" fill="url(#spark)" opacity="0.7"/>
  <circle cx="355" cy="85" r="6" fill="url(#spark)" opacity="0.5"/>
  <path d="M 380 95 L 385 80 L 390 95 L 405 100 L 390 105 L 385 120 L 380 105 L 365 100 Z" fill="#FFFDF9" opacity="0.8"/>
</svg>